# xmcd CD database file
#
# Track frame offsets:
#	150
#	14477
#	45317
#	68172
#	88267
#	113640
#	128632
#	152525
#	178735
#	190055
#	206467
#	225690
#	252917
#
# Disc length: 3730 seconds
#
# Revision: 0
# Processed by: cddbd v1.5.1PL0 Copyright (c) Steve Scherf et al.
# Submitted via: CDex 1.50
#
DISCID=a40e900d
DTITLE=Jonny Viau and Friends - Sideman
DYEAR=1995
DGENRE=Blues
TTITLE0=Good Lover
TTITLE1=Chops
TTITLE2=Soul Sanction
TTITLE3=Soul Serenade
TTITLE4=Lonesome Journey
TTITLE5=Strange Things
TTITLE6=Howie's Hammer
TTITLE7=Clean It Up Quick
TTITLE8=Last Date (With You)
TTITLE9=Nosey Joe
TTITLE10=I Was Made To Love Her
TTITLE11=Cold House
TTITLE12=Foot Patten
EXTD=YEAR: 1995
EXTT0=
EXTT1=
EXTT2=
EXTT3=
EXTT4=
EXTT5=
EXTT6=
EXTT7=
EXTT8=
EXTT9=
EXTT10=
EXTT11=
EXTT12=
PLAYORDER=
